

<svg width="100%" height="100%" viewBox="0 0 512 512" version="1.1" xmlns="http://www.w3.org/2000/svg" xmlns:xlink="http://www.w3.org/1999/xlink" xml:space="preserve" xmlns:serif="http://www.serif.com/" style="fill-rule:evenodd;clip-rule:evenodd;stroke-linejoin:round;stroke-miterlimit:2;">
<path class="cart-icon" d="M164.961,331.004l0.023,0c0.02,0 0.039,-0.004 0.059,-0.004l271.957,0c6.695,0 12.582,-4.441 14.422,-10.879l60,-210c1.293,-4.527 0.386,-9.394 -2.446,-13.152c-2.836,-3.758 -7.269,-5.969 -11.976,-5.969l-366.633,0l-10.723,-48.254c-1.527,-6.863 -7.613,-11.746 -14.644,-11.746l-90,0c-8.285,0 -15,6.715 -15,15c0,8.285 6.715,15 15,15l77.969,0c1.898,8.551 51.312,230.918 54.156,243.711c-15.941,6.93 -27.125,22.824 -27.125,41.289c0,24.812 20.187,45 45,45l272,0c8.285,0 15,-6.715 15,-15c0,-8.285 -6.715,-15 -15,-15l-272,0c-8.27,0 -15,-6.731 -15,-15c0,-8.258 6.707,-14.977 14.961,-14.996Zm312.152,-210.004l-51.43,180l-248.652,0l-40,-180l340.082,0Z" style="fill:#555;fill-rule:nonzero;"/>
<path class="cart-icon" d="M150,436c0,24.812 20.187,45 45,45c24.812,0 45,-20.188 45,-45c0,-24.813 -20.188,-45 -45,-45c-24.813,0 -45,20.187 -45,45Zm45,-15c8.269,0 15,6.73 15,15c0,8.269 -6.731,15 -15,15c-8.27,0 -15,-6.731 -15,-15c0,-8.27 6.73,-15 15,-15Z" style="fill:#555;fill-rule:nonzero;"/>
<path class="cart-icon" d="M362,436c0,24.812 20.187,45 45,45c24.812,0 45,-20.188 45,-45c0,-24.813 -20.188,-45 -45,-45c-24.813,0 -45,20.187 -45,45Zm45,-15c8.269,0 15,6.73 15,15c0,8.269 -6.731,15 -15,15c-8.27,0 -15,-6.731 -15,-15c0,-8.27 6.73,-15 15,-15Z" style="fill:#555;fill-rule:nonzero;"/></svg>