<?xml version="1.0" encoding="UTF-8" standalone="no"?><!DOCTYPE svg PUBLIC "-//W3C//DTD SVG 1.1//EN" "http://www.w3.org/Graphics/SVG/1.1/DTD/svg11.dtd"><svg width="100%" height="100%" viewBox="0 0 512 512" version="1.1" xmlns="http://www.w3.org/2000/svg" xmlns:xlink="http://www.w3.org/1999/xlink" xml:space="preserve" xmlns:serif="http://www.serif.com/" style="fill-rule:evenodd;clip-rule:evenodd;stroke-linejoin:round;stroke-miterlimit:2;"><path d="M429.063,0l-346.126,0c-45.804,0 -82.937,37.133 -82.937,82.938l0,346.125c0,45.804 37.133,82.937 82.938,82.937l346.125,0c45.804,0 82.937,-37.133 82.937,-82.938l0,-346.125c0,-45.804 -37.133,-82.937 -82.938,-82.937Z" style="fill:#fcfcfc;fill-rule:nonzero;"/><path d="M286.508,0l-203.57,0c-45.805,0 -82.938,37.133 -82.938,82.938l0,346.125c0,45.804 37.133,82.937 82.938,82.937l106.796,0c-84.058,-100.805 -52.41,-287.09 11.079,-359.762c61.308,-70.172 80.023,-126.34 85.695,-152.238Z" style="fill:#fff;fill-rule:nonzero;"/></svg>